<svg id="Capa_1" enable-background="new 0 0 512 512" height="512" viewBox="0 0 512 512" width="512" xmlns="http://www.w3.org/2000/svg"><g><path d="m480.133 285.73c-17.604 0-31.867 14.264-31.867 31.867 0 43.932-35.737 79.668-79.668 79.668-43.932 0-79.668-35.737-79.668-79.668v-8.761c-10.535 3.258-21.617 4.964-32.929 4.964s-22.394-1.706-32.929-4.964v8.761c0 43.932-35.737 79.668-79.668 79.668s-79.668-35.737-79.668-79.668c0-17.604-14.263-31.867-31.867-31.867s-31.869 14.264-31.869 31.867c0 79.077 64.326 143.403 143.403 143.403 45.031 0 86.288-20.9 112.597-53.464 26.309 32.564 67.567 53.464 112.597 53.464 79.077 0 143.403-64.326 143.403-143.403 0-17.603-14.263-31.867-31.867-31.867z"/><path d="m193.631 254.588c15.471 18.565 38.203 29.212 62.369 29.212s46.898-10.647 62.369-29.212l67.146-80.575c18.832-22.599 22.779-53.186 10.302-79.825s-38.503-43.188-67.92-43.188h-143.794c-29.417 0-55.441 16.549-67.919 43.188-12.477 26.639-8.53 57.227 10.302 79.825z"/></g></svg>